{"glyphs":{"0":{"ha":1313,"x_min":37,"x_max":1251,"o":"m 264 1145 q 285 1199 264 1145 q 362 1227 305 1252 q 447 1163 419 1203 q 502 1065 474 1122 q 561 968 512 1042 q 674 803 610 895 q 817 920 755 867 q 886 989 879 972 q 938 1100 901 1030 q 1028 1164 975 1171 q 1099 1122 1081 1158 q 1125 1069 1117 1087 q 1139 1036 1133 1051 q 1144 1020 1144 1020 q 1197 999 1144 1020 q 1227 922 1251 979 q 1162 838 1202 865 q 1064 783 1122 810 q 970 724 1042 772 q 809 613 899 676 q 929 452 877 519 q 994 380 982 384 q 1107 329 1021 368 q 1175 237 1193 289 q 1088 163 1157 184 q 1020 142 1020 142 q 999 98 1020 142 q 946 44 979 53 q 860 57 913 35 q 806 125 806 79 q 788 224 804 170 q 756 303 772 277 q 713 362 750 311 q 626 481 677 412 q 457 354 528 410 q 381 287 386 298 q 331 173 370 258 q 239 105 291 87 q 165 191 187 123 q 144 260 144 260 q 99 280 144 260 q 45 334 54 300 q 58 419 37 366 q 125 475 79 473 q 224 492 171 476 q 304 525 278 509 q 365 569 313 531 q 490 661 418 608 q 367 814 422 748 q 294 887 311 880 q 182 940 252 903 q 119 1030 112 977 q 161 1101 126 1083 q 215 1127 197 1119 q 249 1140 233 1135 q 264 1145 264 1145 z "},"1":{"ha":489,"x_min":7,"x_max":466,"o":"m 244 107 q 196 77 244 107 q 116 99 147 46 q 87 201 85 152 q 102 313 89 250 q 113 439 108 345 q 121 636 119 533 q 122 825 123 740 q 113 923 120 909 q 52 1031 96 948 q 52 1145 7 1114 q 165 1153 97 1176 q 233 1129 233 1129 q 276 1153 233 1129 q 351 1164 319 1176 q 412 1102 382 1152 q 416 1015 442 1053 q 371 925 390 977 q 350 843 352 873 q 348 753 349 827 q 349 591 347 678 q 356 427 351 503 q 374 332 362 351 q 432 223 397 295 q 429 113 466 152 q 353 81 392 75 q 295 92 313 87 q 260 102 275 96 q 244 107 244 107 z "},"2":{"ha":924,"x_min":16,"x_max":880,"o":"m 239 1130 q 287 1160 239 1130 q 366 1137 335 1190 q 395 1036 397 1084 q 381 924 393 987 q 369 798 374 892 q 361 600 363 703 q 360 411 358 496 q 370 314 361 326 q 430 205 385 288 q 430 92 475 122 q 317 84 385 60 q 250 108 250 108 q 206 84 250 108 q 132 73 163 60 q 70 134 100 85 q 66 221 40 183 q 112 311 93 258 q 132 394 130 363 q 134 484 133 409 q 133 645 134 558 q 125 809 131 732 q 109 905 120 886 q 50 1013 84 941 q 54 1123 16 1084 q 129 1155 90 1162 q 188 1145 168 1149 q 222 1135 206 1140 q 239 1130 239 1130 m 640 1122 q 698 1155 640 1122 q 783 1165 757 1187 q 829 1095 810 1143 q 823 979 849 1047 q 784 785 797 911 q 772 593 772 659 q 782 427 772 526 q 807 290 792 329 q 851 195 821 252 q 835 104 880 138 q 737 89 789 68 q 659 96 685 110 q 551 77 631 82 q 473 135 471 73 q 509 242 475 197 q 549 315 543 286 q 558 411 551 330 q 568 589 565 492 q 568 770 572 685 q 549 878 565 855 q 472 985 514 922 q 450 1093 429 1048 q 505 1159 470 1138 q 568 1168 540 1180 q 617 1139 594 1156 q 640 1122 640 1122 z "},"3":{"ha":1334,"x_min":-9,"x_max":1271,"o":"m 681 1130 q 729 1160 681 1130 q 808 1137 777 1190 q 837 1036 839 1084 q 823 924 836 987 q 810 798 816 892 q 803 600 805 703 q 802 411 800 496 q 812 314 804 326 q 836 274 819 302 q 868 215 853 247 q 889 321 870 254 q 908 446 897 352 q 927 643 918 540 q 938 831 935 746 q 935 930 941 916 q 880 1041 920 956 q 886 1155 840 1126 q 1000 1156 933 1183 q 1066 1128 1066 1128 q 1111 1149 1066 1128 q 1186 1157 1155 1171 q 1244 1092 1217 1143 q 1243 1005 1271 1041 q 1193 917 1215 968 q 1167 836 1171 865 q 1160 747 1165 821 q 1152 585 1155 672 q 1150 420 1149 497 q 1162 325 1152 344 q 1213 213 1183 286 q 1204 104 1243 140 q 1126 76 1165 67 q 1069 90 1088 84 q 1035 102 1050 96 q 1019 108 1019 108 q 969 80 1019 108 q 892 107 920 52 q 888 113 889 111 q 872 92 884 99 q 759 84 827 60 q 691 108 691 108 q 648 84 691 108 q 574 73 605 60 q 512 134 542 85 q 509 221 482 183 q 553 311 534 258 q 574 394 572 363 q 576 484 575 409 q 575 645 576 558 q 568 809 573 732 q 551 905 562 886 q 492 1013 526 941 q 496 1123 458 1084 q 571 1155 532 1162 q 629 1145 610 1149 q 665 1135 648 1140 q 681 1130 681 1130 m 195 1120 q 251 1157 195 1120 q 336 1173 307 1193 q 386 1106 363 1152 q 388 990 409 1059 q 362 794 366 921 q 363 601 358 667 q 384 436 367 534 q 418 302 400 338 q 469 210 435 264 q 459 117 502 155 q 362 96 416 79 q 283 98 309 113 q 177 72 257 81 q 96 124 98 62 q 124 233 94 186 q 159 309 155 279 q 162 405 161 323 q 160 583 163 487 q 148 764 157 679 q 120 870 138 848 q 37 972 83 913 q 7 1078 -9 1031 q 58 1148 24 1124 q 119 1161 91 1171 q 171 1136 148 1151 q 195 1120 195 1120 z "},"4":{"ha":1459,"x_min":1,"x_max":1390,"o":"m 1025 153 q 1023 152 1025 153 q 1020 150 1022 151 q 968 102 1000 127 q 914 85 937 76 q 848 137 882 98 q 819 250 815 176 q 796 446 823 322 q 749 633 769 570 q 688 787 728 696 q 623 910 648 878 q 551 987 596 942 q 538 1080 505 1031 q 626 1123 570 1127 q 703 1141 682 1119 q 799 1191 724 1162 q 892 1161 874 1220 q 890 1048 909 1101 q 876 966 872 996 q 908 822 878 946 q 976 587 939 699 q 1026 836 1004 711 q 1042 979 1048 960 q 1002 1096 1031 1006 q 1023 1208 972 1185 q 1135 1195 1072 1230 q 1198 1160 1198 1160 q 1244 1175 1198 1160 q 1320 1173 1291 1191 q 1369 1101 1348 1155 q 1358 1015 1390 1048 q 1296 934 1324 983 q 1261 857 1268 886 q 1243 769 1257 842 q 1215 610 1229 696 q 1193 447 1201 524 q 1194 351 1185 371 q 1231 233 1210 310 q 1208 125 1251 157 q 1127 107 1164 94 q 1072 129 1090 121 q 1039 144 1054 136 q 1025 153 1025 153 m 222 1130 q 271 1160 222 1130 q 350 1137 319 1190 q 379 1036 380 1084 q 365 924 377 987 q 353 798 358 892 q 345 600 347 703 q 344 411 342 496 q 353 314 345 326 q 414 205 369 288 q 414 92 459 122 q 301 84 368 60 q 233 108 233 108 q 190 84 233 108 q 115 73 146 60 q 54 134 83 85 q 50 221 24 183 q 96 311 77 258 q 117 394 115 363 q 118 484 117 409 q 117 645 119 558 q 109 809 115 732 q 92 905 104 886 q 35 1013 68 941 q 37 1123 1 1084 q 113 1155 74 1162 q 172 1145 152 1149 q 207 1135 191 1140 q 222 1130 222 1130 z "},"5":{"ha":1307,"x_min":5,"x_max":1245,"o":"m 1132 1095 q 1188 1095 1132 1095 q 1243 1034 1245 1095 q 1213 931 1241 971 q 1141 845 1185 891 q 1081 770 1122 826 q 993 645 1040 714 q 900 507 945 576 q 829 392 855 437 q 842 333 850 359 q 803 277 831 298 q 788 173 801 227 q 735 117 774 118 q 680 134 707 115 q 633 174 653 152 q 571 176 604 155 q 506 239 530 201 q 473 261 484 247 q 457 365 444 301 q 406 487 445 401 q 323 663 368 572 q 239 825 279 753 q 188 904 200 897 q 83 972 161 920 q 31 1074 5 1025 q 128 1133 57 1122 q 199 1143 199 1143 q 226 1184 199 1143 q 288 1228 253 1224 q 370 1202 321 1232 q 414 1127 420 1172 q 415 1025 408 1081 q 435 943 422 970 q 464 883 439 932 q 522 771 489 833 q 591 646 555 709 q 655 544 627 583 q 713 633 673 570 q 795 766 754 696 q 869 895 837 835 q 901 975 901 955 q 910 1098 901 1019 q 972 1189 920 1177 q 1053 1175 1023 1201 q 1097 1135 1082 1149 q 1121 1108 1110 1121 q 1132 1095 1132 1095 z "},"6":{"ha":1632,"x_min":22,"x_max":1555,"o":"m 588 463 q 636 587 611 509 q 682 741 661 664 q 716 879 703 818 q 732 952 730 939 q 716 1035 734 982 q 716 1147 698 1087 q 808 1178 733 1206 q 904 1127 882 1149 q 981 1109 925 1105 q 1069 1065 1037 1113 q 1057 972 1102 1017 q 985 897 1011 928 q 919 773 959 864 q 859 620 879 683 q 811 432 838 556 q 788 236 784 308 q 759 124 792 163 q 693 72 725 85 q 652 79 675 64 q 609 113 629 94 q 595 100 607 111 q 570 79 584 90 q 522 43 554 66 q 439 40 489 21 q 389 138 389 58 q 395 261 389 217 q 369 354 397 283 q 305 505 341 425 q 236 652 269 585 q 197 732 203 719 q 142 798 182 758 q 63 860 102 837 q 28 940 22 882 q 58 1022 35 997 q 130 1044 81 1046 q 179 1041 179 1041 q 230 1091 179 1041 q 336 1133 281 1141 q 385 1030 390 1124 q 376 907 380 936 q 396 846 375 895 q 449 730 417 796 q 518 592 481 664 q 588 463 556 519 m 1333 111 q 1285 81 1333 111 q 1206 104 1236 50 q 1176 205 1175 157 q 1191 317 1178 254 q 1203 443 1197 349 q 1211 641 1208 538 q 1212 829 1213 744 q 1202 927 1210 914 q 1141 1035 1186 952 q 1142 1149 1097 1118 q 1255 1157 1187 1180 q 1322 1134 1322 1134 q 1365 1157 1322 1134 q 1440 1168 1409 1181 q 1502 1106 1472 1156 q 1506 1020 1532 1057 q 1460 929 1479 982 q 1440 847 1442 877 q 1438 758 1438 832 q 1439 595 1437 683 q 1446 431 1440 508 q 1463 336 1451 355 q 1521 228 1487 299 q 1518 118 1555 157 q 1442 86 1481 79 q 1384 97 1403 92 q 1349 106 1365 101 q 1333 111 1333 111 z "},"7":{"ha":2044,"x_min":14,"x_max":1947,"o":"m 1725 1130 q 1741 1135 1725 1130 q 1776 1145 1757 1140 q 1834 1155 1795 1149 q 1910 1123 1873 1162 q 1913 1013 1947 1084 q 1855 905 1879 941 q 1838 809 1843 886 q 1831 645 1832 732 q 1830 484 1829 558 q 1832 394 1830 409 q 1852 311 1834 363 q 1898 221 1871 258 q 1894 134 1924 183 q 1832 73 1864 85 q 1757 84 1801 60 q 1714 108 1714 108 q 1647 84 1714 108 q 1534 92 1579 60 q 1533 205 1489 122 q 1594 314 1578 288 q 1604 411 1602 326 q 1603 600 1605 496 q 1595 798 1600 703 q 1583 924 1589 892 q 1568 1036 1570 987 q 1598 1137 1567 1084 q 1677 1160 1628 1190 q 1725 1130 1725 1130 m 128 1095 q 139 1108 128 1095 q 163 1135 149 1121 q 206 1175 177 1149 q 288 1189 235 1201 q 349 1098 340 1177 q 359 975 359 1019 q 390 895 359 955 q 463 766 422 835 q 545 633 505 696 q 604 544 586 570 q 668 646 631 583 q 737 771 704 709 q 794 883 770 833 q 825 943 819 932 q 844 1025 837 970 q 846 1127 852 1081 q 889 1202 840 1172 q 972 1228 938 1232 q 1033 1184 1006 1224 q 1061 1143 1061 1143 q 1088 1141 1061 1143 q 1149 1128 1116 1138 q 1180 1165 1162 1149 q 1265 1155 1206 1187 q 1324 1122 1324 1122 q 1347 1139 1324 1122 q 1396 1168 1369 1156 q 1459 1159 1423 1180 q 1514 1093 1494 1138 q 1492 985 1534 1048 q 1416 878 1449 922 q 1395 770 1398 855 q 1395 589 1392 685 q 1405 411 1398 492 q 1415 315 1412 330 q 1455 242 1421 286 q 1491 135 1489 197 q 1412 77 1493 73 q 1305 96 1332 82 q 1226 89 1278 110 q 1129 104 1174 68 q 1113 195 1083 138 q 1157 290 1142 252 q 1182 427 1171 329 q 1192 593 1192 526 q 1181 766 1192 654 q 1149 953 1171 878 q 1103 923 1125 936 q 1072 904 1082 910 q 1020 825 1059 897 q 936 663 981 753 q 852 487 891 572 q 802 365 814 401 q 786 261 816 301 q 753 239 776 247 q 688 176 730 201 q 627 174 655 155 q 579 134 606 152 q 524 117 553 115 q 471 173 484 118 q 456 277 458 227 q 418 333 428 297 q 430 392 410 359 q 358 507 404 437 q 266 645 313 576 q 178 770 219 714 q 119 845 137 826 q 46 931 74 891 q 16 1034 18 971 q 71 1095 14 1095 q 128 1095 128 1095 z "},"8":{"ha":2448,"x_min":7,"x_max":2332,"o":"m 144 1100 q 157 1110 144 1100 q 187 1131 170 1120 q 238 1159 203 1141 q 321 1153 273 1177 q 359 1050 368 1128 q 339 928 349 971 q 377 744 331 894 q 456 501 424 594 q 576 710 513 592 q 648 848 639 828 q 668 930 660 875 q 671 1031 676 985 q 715 1106 665 1077 q 798 1132 764 1135 q 859 1087 832 1128 q 886 1046 886 1046 q 957 1034 886 1046 q 1053 974 1027 1023 q 999 873 1078 925 q 895 806 920 821 q 841 726 882 799 q 754 562 800 653 q 668 386 708 471 q 618 267 629 300 q 617 192 631 233 q 583 133 604 151 q 551 120 572 123 q 504 82 529 97 q 424 98 461 56 q 362 62 398 79 q 294 56 327 45 q 258 107 262 64 q 262 195 254 150 q 235 242 243 212 q 273 330 223 281 q 232 457 260 378 q 174 618 205 537 q 116 768 144 700 q 75 859 88 836 q 25 960 42 914 q 20 1067 7 1006 q 88 1113 33 1126 q 144 1100 144 1100 m 1303 114 q 1288 108 1303 114 q 1253 96 1272 102 q 1196 82 1234 90 q 1118 110 1157 73 q 1109 220 1079 146 q 1161 332 1139 293 q 1173 427 1171 351 q 1171 591 1174 504 q 1163 753 1168 679 q 1156 843 1158 827 q 1130 923 1152 872 q 1080 1011 1108 975 q 1079 1098 1052 1047 q 1137 1163 1106 1149 q 1212 1156 1167 1177 q 1257 1135 1257 1135 q 1323 1162 1257 1135 q 1436 1161 1389 1190 q 1443 1047 1483 1133 q 1388 936 1402 962 q 1384 837 1381 922 q 1395 649 1387 752 q 1415 453 1404 547 q 1434 328 1426 359 q 1455 217 1450 265 q 1431 113 1459 168 q 1353 86 1402 58 q 1303 114 1303 114 m 2128 1126 q 2151 1142 2128 1126 q 2203 1167 2175 1157 q 2265 1154 2231 1177 q 2315 1084 2298 1131 q 2286 979 2332 1038 q 2203 876 2239 919 q 2175 770 2184 854 q 2163 589 2166 686 q 2161 412 2159 493 q 2164 316 2162 330 q 2199 239 2168 286 q 2227 131 2229 193 q 2145 78 2224 68 q 2040 104 2066 87 q 1967 103 2016 118 q 1876 115 1919 88 q 1851 94 1863 99 q 1775 97 1820 77 q 1730 116 1730 116 q 1665 86 1730 116 q 1552 82 1600 56 q 1539 195 1503 109 q 1590 309 1576 282 q 1589 407 1596 322 q 1569 594 1581 492 q 1541 790 1556 696 q 1516 914 1526 884 q 1490 1024 1497 975 q 1510 1128 1483 1072 q 1586 1159 1535 1185 q 1637 1134 1637 1134 q 1652 1141 1637 1134 q 1686 1154 1668 1147 q 1743 1170 1704 1160 q 1822 1146 1781 1181 q 1836 1037 1863 1112 q 1790 923 1809 962 q 1782 827 1780 903 q 1791 663 1784 750 q 1806 502 1798 576 q 1817 413 1815 427 q 1883 270 1827 350 q 1895 290 1889 280 q 1905 308 1901 300 q 1939 443 1922 345 q 1960 608 1956 541 q 1960 801 1964 674 q 1935 997 1956 927 q 1936 1112 1913 1066 q 1987 1179 1959 1158 q 2072 1163 2016 1200 q 2128 1126 2128 1126 z "},"9":{"ha":1685,"x_min":-14,"x_max":1605,"o":"m 665 1141 q 685 1194 665 1141 q 762 1224 705 1247 q 847 1160 819 1200 q 903 1063 876 1120 q 956 979 913 1042 q 1056 836 998 916 q 1149 969 1111 911 q 1190 1044 1187 1027 q 1211 1165 1194 1088 q 1280 1251 1227 1242 q 1360 1230 1333 1259 q 1399 1185 1387 1200 q 1421 1156 1411 1170 q 1431 1143 1431 1143 q 1488 1137 1431 1143 q 1536 1071 1544 1132 q 1497 971 1528 1009 q 1417 892 1466 934 q 1335 803 1396 875 q 1199 640 1274 732 q 1333 464 1274 539 q 1405 385 1393 389 q 1519 335 1433 374 q 1588 244 1605 296 q 1502 169 1570 191 q 1434 147 1434 147 q 1414 102 1434 147 q 1362 48 1394 57 q 1275 60 1329 39 q 1220 127 1221 81 q 1201 226 1218 173 q 1168 304 1184 279 q 1131 355 1162 313 q 1053 458 1099 397 q 939 308 986 372 q 891 233 892 244 q 873 109 888 202 q 803 20 858 16 q 709 83 748 22 q 670 143 670 143 q 621 151 670 143 q 555 188 572 158 q 544 274 538 216 q 595 345 551 331 q 685 389 638 359 q 753 441 732 418 q 806 507 760 449 q 911 642 851 564 q 778 804 838 733 q 699 882 717 876 q 586 934 656 897 q 522 1023 516 970 q 563 1095 528 1076 q 616 1122 597 1114 q 650 1135 634 1130 q 665 1141 665 1141 m 291 1185 q 307 1188 291 1185 q 343 1196 323 1192 q 401 1202 362 1198 q 475 1165 441 1206 q 471 1055 510 1124 q 406 951 431 986 q 381 857 392 932 q 362 694 370 781 q 351 532 355 607 q 347 444 347 458 q 361 359 347 413 q 401 267 376 305 q 391 180 424 227 q 326 123 357 133 q 252 139 293 113 q 210 165 210 165 q 141 146 210 165 q 28 162 71 127 q 36 276 -14 196 q 104 380 87 355 q 120 476 113 392 q 132 664 127 561 q 138 862 137 767 q 135 989 139 956 q 128 1101 126 1052 q 164 1201 130 1150 q 245 1218 199 1252 q 291 1185 291 1185 z "}," ":{"ha":1389,"x_min":0,"x_max":0,"o":""},"A":{"ha":847,"x_min":35,"x_max":977,"o":"m 867 422 q 939 172 901 294 q 966 48 977 50 q 885 54 954 46 q 787 70 816 61 q 697 78 759 78 q 635 77 635 77 q 618 140 635 77 q 602 242 601 203 q 598 302 602 259 l 388 281 q 354 140 370 207 q 339 74 339 74 q 303 64 339 74 q 236 54 267 54 q 120 44 205 54 q 35 35 35 35 q 113 165 90 100 q 168 307 136 231 q 322 723 250 506 q 486 1133 393 941 l 486 1133 l 522 1208 q 608 1210 553 1208 q 695 1219 663 1211 q 789 791 747 1032 q 867 422 831 549 m 578 487 q 560 621 569 556 q 545 721 551 685 q 450 484 484 570 l 578 487 z "},"B":{"ha":760,"x_min":17,"x_max":724,"o":"m 423 1235 q 477 1192 439 1227 q 554 1114 515 1156 q 623 1036 593 1072 q 653 994 653 1000 q 664 935 653 972 q 676 872 675 897 l 650 837 q 598 790 623 800 q 557 767 573 781 l 467 691 l 602 660 q 651 595 631 652 q 712 496 672 537 q 716 366 718 446 q 724 243 715 286 q 638 129 701 175 q 551 65 574 83 q 465 52 538 56 q 307 46 391 47 q 151 46 222 45 q 75 48 81 47 q 51 401 56 224 q 22 755 45 578 q 18 869 17 793 q 22 1021 19 944 q 31 1160 26 1098 q 37 1233 35 1221 q 118 1234 61 1231 q 238 1239 176 1236 q 354 1242 300 1242 q 423 1235 407 1242 m 492 496 q 460 529 473 515 q 429 545 447 543 q 387 554 411 547 q 362 560 362 560 l 258 550 q 288 340 277 376 q 332 299 294 319 q 386 275 369 278 q 456 321 402 271 q 507 405 510 370 q 501 447 506 411 q 492 496 496 483 m 245 800 q 319 812 279 806 q 367 824 359 819 q 389 844 374 828 q 414 873 403 861 q 391 931 399 909 q 371 970 382 954 q 293 995 359 986 q 227 1003 227 1003 q 232 974 227 1003 q 238 901 238 945 q 245 800 238 873 z "},"C":{"ha":724,"x_min":-5,"x_max":690,"o":"m 687 1027 q 688 999 687 1027 q 680 935 690 970 q 631 892 669 901 q 544 881 592 884 q 478 911 495 878 q 458 972 460 943 q 418 1004 456 1000 q 355 1002 380 1008 q 316 932 328 996 q 299 850 304 869 q 287 776 293 829 q 273 651 281 723 q 260 505 265 578 q 254 382 254 431 q 275 313 262 339 q 317 296 290 302 q 365 304 339 302 q 395 319 391 306 q 409 366 399 332 q 428 425 420 399 q 522 473 472 472 q 575 467 547 473 q 643 455 604 460 q 638 422 643 455 q 627 348 633 390 q 616 267 621 307 q 611 215 611 228 q 572 133 610 188 q 534 78 534 78 q 514 81 534 78 q 444 81 494 83 q 378 73 419 80 q 290 60 336 66 q 201 54 244 54 q 129 65 157 53 q 58 128 101 77 q 7 191 16 180 q 9 332 -5 208 q 27 461 15 389 q 52 609 39 533 q 77 757 64 685 q 98 887 90 829 q 116 1032 115 996 q 176 1118 116 1046 q 249 1198 237 1190 q 314 1209 262 1206 q 364 1209 336 1209 q 421 1209 391 1209 q 529 1207 483 1209 q 593 1204 574 1206 q 646 1115 605 1202 q 687 1027 687 1027 z "},"D":{"ha":750,"x_min":0,"x_max":715,"o":"m 522 81 q 442 68 506 73 q 303 58 378 62 q 159 51 228 54 q 68 46 91 48 q 62 117 64 56 q 59 255 60 178 q 58 405 58 331 q 60 515 58 479 q 33 847 65 683 q 0 1179 0 1011 q 83 1182 6 1180 q 253 1185 160 1185 q 426 1183 346 1185 q 520 1172 507 1180 q 615 1070 545 1155 q 715 922 685 986 q 702 761 707 856 q 695 567 697 666 q 695 379 693 469 q 703 236 696 290 q 628 158 705 222 q 522 81 551 94 m 300 326 q 353 328 300 326 q 422 354 407 331 q 460 496 436 376 q 484 649 484 616 q 470 706 484 665 q 439 790 457 747 q 405 864 422 832 q 380 895 388 897 q 328 874 363 891 q 289 833 293 858 q 284 763 286 821 q 280 635 281 705 q 279 503 279 566 q 282 419 279 440 q 293 351 287 376 q 300 326 300 326 z "},"F":{"ha":736,"x_min":6,"x_max":702,"o":"m 315 567 q 314 384 321 492 q 311 230 307 276 q 291 123 313 183 q 269 63 269 63 q 253 67 269 63 q 211 68 238 71 q 114 69 184 65 q 33 76 45 73 q 34 191 20 79 q 49 365 49 303 q 27 777 49 575 q 6 1185 6 978 q 41 1184 28 1185 q 79 1185 54 1184 q 190 1182 91 1185 q 402 1175 288 1179 q 609 1167 516 1171 q 702 1164 702 1164 q 676 1041 681 1067 q 642 931 671 1015 l 307 955 q 296 946 307 955 q 284 924 284 937 q 281 858 284 910 q 274 764 278 806 l 479 767 q 515 752 479 767 q 546 705 551 737 q 551 614 541 671 q 561 557 561 557 q 464 561 561 557 q 315 567 367 566 z "},"E":{"ha":774,"x_min":8,"x_max":737,"o":"m 298 773 q 372 771 323 772 q 469 770 420 770 q 553 770 517 770 q 589 770 589 770 q 579 713 589 770 q 574 623 570 656 q 544 576 579 589 q 508 564 508 564 l 303 578 q 310 436 307 536 q 313 323 313 337 q 324 301 313 310 q 336 292 336 292 l 671 297 q 704 185 699 212 q 731 60 709 158 q 645 61 731 60 q 454 65 559 63 q 258 70 349 68 q 154 74 166 73 q 117 76 130 76 q 81 78 104 77 q 79 439 81 286 q 77 802 77 592 q 65 896 77 833 q 40 1024 53 960 q 17 1136 26 1088 q 14 1186 8 1185 q 110 1187 26 1187 q 229 1185 195 1187 q 468 1180 337 1183 q 708 1176 599 1178 q 707 1112 708 1176 q 717 1011 706 1048 q 732 961 727 975 q 737 947 737 947 l 293 945 q 298 857 295 886 q 298 773 302 827 z "},"G":{"ha":852,"x_min":1,"x_max":812,"o":"m 797 1022 q 795 992 797 1022 q 779 927 794 962 q 716 883 764 891 q 609 871 668 874 q 531 881 550 868 q 511 923 513 893 q 461 956 509 952 q 382 955 414 960 q 335 909 349 949 q 311 840 321 869 q 297 744 305 825 q 281 571 288 664 q 271 397 274 477 q 276 302 269 317 q 365 262 290 272 q 480 267 439 252 q 520 330 521 281 q 514 409 519 379 q 478 433 509 438 q 418 417 447 429 q 397 495 389 405 q 401 614 406 585 q 435 639 398 629 q 521 656 471 649 q 622 668 571 663 q 697 677 672 673 q 764 700 747 686 q 797 666 782 713 q 776 535 812 618 q 718 437 740 451 q 733 349 695 422 q 781 258 771 276 q 765 218 786 249 q 715 152 745 187 q 657 88 686 117 q 617 53 628 58 q 469 47 594 41 q 297 45 344 54 q 203 26 250 36 q 128 29 155 17 q 63 90 100 41 q 9 159 25 139 q 11 302 1 170 q 36 591 20 434 q 65 882 51 749 q 80 1029 79 1016 q 154 1120 81 1056 q 255 1200 226 1185 q 334 1209 269 1206 q 475 1211 399 1211 q 615 1207 550 1210 q 694 1204 680 1205 q 759 1111 720 1200 q 797 1022 797 1022 z "},"H":{"ha":942,"x_min":12,"x_max":897,"o":"m 578 791 q 560 932 569 861 q 549 1030 551 1004 q 522 1124 547 1074 q 497 1175 497 1175 q 631 1185 570 1182 q 755 1202 692 1187 q 807 1209 792 1211 q 834 1195 821 1207 q 836 1095 840 1188 q 821 1049 836 1074 q 806 1001 807 1025 q 814 936 804 968 q 823 874 825 904 q 815 759 818 810 q 812 688 812 707 q 824 571 812 661 q 851 380 836 481 q 878 197 865 280 q 892 101 891 113 q 857 53 897 49 q 765 50 834 55 q 684 35 696 45 q 651 34 671 25 q 631 43 631 43 q 635 90 631 43 q 637 168 640 137 q 625 290 635 186 q 606 493 614 393 l 602 493 q 539 499 602 493 q 455 507 477 506 q 399 506 433 507 q 353 505 365 505 q 341 200 347 350 q 336 51 336 51 q 244 57 336 51 q 132 67 152 63 q 80 65 113 71 q 47 60 47 60 q 47 138 47 60 q 48 316 47 216 q 50 510 49 416 q 54 634 52 604 q 52 799 58 695 q 48 942 46 903 q 31 1081 50 981 q 12 1182 12 1182 l 83 1200 l 319 1211 q 318 1191 319 1211 q 313 1160 317 1170 q 314 1109 310 1154 q 324 1004 317 1063 q 338 886 331 945 q 351 795 346 827 q 454 791 382 793 q 539 788 526 788 q 578 791 559 788 z "},"I":{"ha":296,"x_min":-7,"x_max":283,"o":"m 282 1253 q 278 1223 283 1255 q 273 1173 273 1191 q 267 1064 273 1154 q 251 968 260 974 q 190 969 244 964 q 83 970 135 975 q 24 986 41 966 q 3 1034 7 1006 q -5 1145 -3 1083 q -7 1215 -7 1206 q 32 1232 -5 1228 q 107 1245 68 1235 q 201 1263 186 1267 q 247 1256 213 1260 q 282 1253 281 1251 m 36 867 l 245 871 q 239 778 245 871 q 234 645 234 684 q 234 535 234 625 q 233 345 233 445 q 232 165 232 245 q 231 85 231 85 l 23 64 q 22 138 23 64 q 26 235 22 213 q 30 390 34 286 q 21 600 26 494 q 18 785 17 705 q 36 867 18 865 z "},"J":{"ha":845,"x_min":14,"x_max":805,"o":"m 14 233 q 14 263 14 233 q 31 328 15 292 q 93 372 45 363 q 200 383 141 380 q 278 374 259 386 q 299 332 297 361 q 348 298 301 302 q 428 300 395 294 q 474 346 460 307 q 498 415 488 385 q 511 512 503 430 q 524 688 518 593 q 533 862 530 782 q 530 953 535 941 q 497 981 519 975 q 444 993 475 987 l 408 1145 l 443 1206 q 507 1210 492 1206 q 601 1228 554 1219 q 676 1226 648 1238 q 742 1165 703 1214 q 797 1095 781 1116 q 795 952 805 1084 q 771 663 786 820 q 743 372 757 506 q 730 225 730 238 q 705 134 728 199 q 652 55 681 70 q 557 45 637 47 q 384 44 477 43 q 211 47 291 45 q 118 52 131 50 q 52 143 91 54 q 14 233 14 233 z "},"K":{"ha":1108,"x_min":21,"x_max":1056,"o":"m 21 60 q 35 112 21 60 q 48 195 48 163 q 51 255 47 227 q 54 283 54 283 l 56 654 q 53 732 56 671 q 47 865 51 794 q 39 997 43 936 q 30 1076 34 1059 q 28 1161 21 1108 q 36 1214 36 1214 q 78 1215 36 1214 q 151 1223 120 1216 q 260 1236 182 1230 q 352 1242 338 1242 q 354 1203 359 1240 q 341 1116 350 1166 q 323 1012 332 1065 q 312 928 314 960 q 308 863 309 895 q 304 798 306 830 q 304 798 304 798 q 305 798 304 798 q 372 880 323 812 q 472 1023 420 948 q 563 1159 523 1099 q 602 1220 602 1220 q 739 1228 610 1206 q 985 1232 867 1249 l 456 676 q 490 636 456 676 q 569 544 524 596 q 658 442 614 492 q 722 371 702 392 q 797 282 741 349 q 912 144 854 216 q 1013 15 970 72 q 1048 -43 1056 -41 q 849 -37 927 -58 q 674 -7 771 -16 q 638 24 674 -7 q 593 85 603 56 q 557 146 587 100 q 492 246 528 193 q 425 345 456 299 q 384 403 393 391 l 304 505 q 302 507 304 505 q 296 513 300 509 q 296 271 295 391 q 296 31 296 151 q 247 31 268 31 q 216 31 225 31 q 97 45 174 29 q 21 60 21 60 z "},"L":{"ha":789,"x_min":3,"x_max":751,"o":"m 3 60 q 17 112 3 60 q 31 195 31 163 q 33 255 30 227 q 37 283 37 283 l 85 654 q 77 732 87 671 q 55 865 68 794 q 29 997 41 936 q 12 1076 16 1059 q 11 1161 3 1108 q 18 1214 18 1214 q 60 1215 18 1214 q 134 1223 102 1216 q 242 1236 164 1230 q 334 1242 320 1242 q 336 1203 341 1240 q 323 1116 332 1166 q 305 1012 314 1065 q 294 928 296 960 q 288 786 292 895 q 281 557 284 676 q 275 345 277 439 q 273 252 273 252 l 751 256 q 748 241 751 256 q 736 191 744 227 q 729 91 728 155 q 730 26 730 26 q 657 23 730 26 q 494 17 585 20 q 320 9 403 13 q 216 6 237 6 q 89 33 174 5 q 3 60 3 60 z "},"M":{"ha":1229,"x_min":6,"x_max":1171,"o":"m 43 1171 q 82 1180 43 1171 q 156 1190 120 1190 q 242 1197 191 1190 q 294 1204 294 1204 q 335 1120 294 1204 q 397 1006 376 1036 q 434 943 407 990 q 491 846 462 897 q 543 756 520 795 q 565 717 565 717 q 565 719 565 717 q 565 725 565 721 q 565 719 565 721 q 566 717 566 717 q 593 752 566 717 q 656 834 621 788 q 725 923 692 880 q 769 982 758 966 q 812 1108 789 1013 q 836 1204 836 1204 q 1133 1217 987 1181 q 1128 1163 1133 1217 q 1117 1040 1122 1109 q 1106 905 1111 970 q 1103 818 1102 840 q 1115 674 1104 795 q 1138 418 1126 554 q 1160 174 1150 283 q 1171 65 1171 65 q 1122 62 1171 65 q 1053 65 1073 60 q 957 88 1031 70 q 883 106 883 106 q 883 176 883 106 q 883 334 884 247 q 880 498 882 421 q 872 586 878 574 q 842 614 860 608 q 808 589 823 619 q 628 195 669 326 q 566 63 587 63 q 502 195 543 63 q 322 589 460 326 q 288 614 306 619 q 258 586 269 608 q 250 498 252 574 q 246 334 247 421 q 246 176 245 247 q 247 106 247 106 q 186 100 247 106 q 105 89 125 94 q 45 74 84 83 q 6 65 6 65 q 16 174 6 65 q 38 418 26 283 q 61 674 50 554 q 73 818 72 795 q 70 898 74 840 q 59 1017 65 956 q 48 1124 54 1077 q 43 1171 43 1171 z "},"N":{"ha":886,"x_min":5,"x_max":844,"o":"m 844 62 q 806 52 844 62 q 732 42 768 42 q 646 35 697 42 q 595 28 595 28 q 549 112 595 28 q 481 227 503 196 q 439 288 469 241 q 377 386 409 335 q 321 476 345 436 q 296 515 296 515 q 297 455 296 515 q 300 321 298 395 q 306 182 302 247 q 316 109 310 117 q 332 72 328 91 q 336 52 336 52 l 68 42 q 60 66 68 42 q 51 129 53 91 q 30 192 48 167 q 7 240 12 217 q 12 301 5 251 q 30 411 20 351 q 49 527 40 471 q 58 610 58 584 q 52 722 58 635 q 39 905 46 810 q 26 1075 32 1000 q 21 1150 21 1150 q 48 1149 21 1150 q 118 1150 75 1147 q 215 1178 161 1152 q 269 1204 269 1204 q 307 1122 269 1204 q 391 938 345 1040 q 480 747 438 837 q 531 643 522 658 q 567 618 549 612 q 595 646 585 624 q 597 734 600 657 q 591 898 595 810 q 583 1056 587 985 q 578 1126 578 1126 q 638 1132 578 1126 q 719 1143 699 1138 q 778 1158 739 1148 q 817 1167 817 1167 q 813 1058 817 1167 q 804 813 809 949 q 796 558 800 678 q 793 415 793 437 q 801 334 793 392 q 818 215 808 276 q 836 108 827 155 q 844 62 844 62 z "},"O":{"ha":732,"x_min":16,"x_max":697,"o":"m 494 1185 q 628 1097 571 1135 q 692 1038 686 1059 q 687 918 697 1016 q 675 747 677 820 q 675 634 673 710 q 680 480 677 559 q 686 338 683 401 q 688 261 688 274 q 669 157 688 204 q 638 108 650 110 q 554 100 631 106 q 386 89 477 94 q 214 82 294 83 q 121 90 134 81 q 70 136 95 107 q 16 231 45 165 q 34 415 22 296 q 56 660 45 533 q 71 900 66 787 q 71 1067 76 1013 q 118 1126 68 1081 q 186 1179 168 1171 q 243 1184 194 1183 q 348 1185 292 1185 q 449 1185 404 1185 q 494 1185 494 1185 m 450 927 q 391 918 450 927 q 317 887 331 909 q 301 819 309 876 q 287 695 293 762 q 276 570 280 629 q 272 494 272 511 q 268 399 272 462 q 280 340 264 336 q 376 351 296 343 q 462 384 456 359 q 464 458 464 396 q 464 593 465 519 q 460 733 463 667 q 456 821 458 800 q 451 896 451 864 q 450 927 450 927 z "},"P":{"ha":743,"x_min":29,"x_max":708,"o":"m 80 368 q 73 697 80 529 q 29 1031 65 865 q 71 1091 29 1031 q 134 1171 112 1150 q 212 1185 157 1190 q 299 1187 267 1179 q 365 1193 315 1191 q 466 1195 414 1194 q 560 1195 519 1195 q 602 1194 602 1194 l 681 1099 q 685 998 677 1076 q 701 833 694 920 q 707 674 708 747 q 684 590 706 602 q 507 564 627 559 q 296 557 387 569 q 329 317 306 447 q 412 96 353 188 q 340 97 412 96 q 242 91 269 97 q 145 78 214 84 q 63 74 75 73 q 65 192 51 75 q 80 368 80 308 m 434 1022 q 370 1007 434 1022 q 294 933 307 991 q 285 811 280 874 q 290 749 290 749 q 352 746 290 749 q 439 750 415 744 q 483 763 461 756 q 504 769 504 769 q 500 843 504 769 q 487 976 496 917 q 455 1011 477 1000 q 434 1022 434 1022 z "},"Q":{"ha":810,"x_min":2,"x_max":772,"o":"m 207 84 q 72 171 129 134 q 8 231 14 209 q 13 350 2 252 q 26 522 23 448 q 24 634 26 559 q 19 788 22 709 q 14 930 16 867 q 12 1007 12 994 q 30 1112 12 1064 q 62 1161 49 1159 q 145 1168 68 1162 q 314 1179 222 1174 q 486 1185 406 1184 q 579 1179 566 1187 q 630 1132 605 1161 q 684 1038 655 1103 q 665 853 677 972 q 644 608 654 734 q 629 369 634 481 q 630 202 624 256 q 596 157 631 190 q 534 103 561 123 q 578 47 559 71 q 624 5 591 33 q 690 -51 656 -22 q 748 -103 724 -80 q 766 -132 772 -127 q 696 -184 753 -142 q 606 -242 638 -225 q 552 -278 574 -258 q 531 -298 531 -298 q 498 -265 531 -298 q 458 -205 465 -231 q 404 -97 453 -187 q 302 83 354 -7 q 234 83 262 83 q 207 84 207 84 m 250 342 q 309 350 250 342 q 383 382 368 359 q 398 449 390 393 q 413 573 406 506 q 424 699 420 640 q 429 774 429 758 q 433 869 429 806 q 420 928 437 932 q 323 917 404 925 q 239 885 243 909 q 236 810 236 872 q 236 674 235 748 q 239 534 237 601 q 244 447 241 468 q 249 373 248 404 q 250 342 250 342 z "},"R":{"ha":947,"x_min":18,"x_max":903,"o":"m 58 352 q 56 648 56 513 q 18 949 56 783 q 44 1038 18 949 q 93 1147 70 1127 q 176 1165 115 1168 q 269 1171 237 1163 q 335 1176 286 1175 q 436 1178 384 1178 q 530 1178 489 1179 q 572 1178 572 1178 l 680 1080 q 680 1001 675 1056 q 688 883 684 945 q 693 765 692 821 q 685 686 694 709 q 627 610 669 642 q 534 560 585 578 q 716 306 635 444 q 903 64 798 168 q 820 54 888 50 q 652 62 752 59 q 616 96 652 62 q 570 156 580 129 q 538 212 566 167 q 472 315 510 256 q 391 436 433 374 q 318 545 349 498 q 272 541 294 543 q 296 349 280 460 q 321 213 313 237 q 328 133 331 182 q 326 83 326 83 q 288 82 326 83 q 223 75 250 81 q 126 62 195 68 q 44 58 56 56 q 45 175 32 58 q 58 352 58 291 m 406 1006 q 342 990 406 1006 q 266 917 278 975 q 259 795 254 858 q 264 732 264 732 q 327 730 264 732 q 412 734 389 728 q 457 746 435 740 q 478 752 478 752 q 473 826 478 752 q 458 960 469 901 q 427 995 448 983 q 406 1006 406 1006 z "},"S":{"ha":796,"x_min":4,"x_max":759,"o":"m 18 346 q 36 350 18 346 q 68 359 54 354 q 175 374 82 364 q 269 384 269 384 q 267 355 269 384 q 274 295 265 326 q 355 293 282 264 q 447 338 427 323 q 463 417 465 354 q 460 479 460 479 q 411 479 460 479 q 286 468 361 478 q 167 492 209 457 q 103 551 125 526 q 66 632 81 575 q 48 738 51 689 q 44 813 46 762 q 41 918 41 864 q 41 1016 40 972 q 48 1069 43 1059 q 109 1132 58 1088 q 189 1175 159 1175 q 247 1186 203 1175 q 343 1211 292 1198 q 442 1236 395 1224 q 509 1247 489 1247 q 579 1229 549 1246 q 633 1198 609 1212 q 691 1165 658 1184 q 724 1145 724 1145 l 735 828 l 475 789 q 482 805 475 789 q 495 836 490 821 q 495 892 500 850 q 486 951 489 935 q 404 949 481 966 q 264 890 327 933 q 255 780 202 847 q 361 699 308 713 q 493 701 396 688 q 636 663 589 713 l 718 573 q 758 412 759 528 q 739 237 757 296 q 653 142 728 201 q 544 60 578 84 q 456 41 526 47 q 307 34 386 35 q 161 33 227 32 q 87 35 95 33 q 54 105 69 36 q 29 193 39 174 q 14 262 4 240 q 18 311 18 276 q 18 346 18 346 z "},"T":{"ha":788,"x_min":20,"x_max":751,"o":"m 20 1162 q 77 1167 20 1162 q 205 1177 134 1171 q 343 1186 277 1182 q 429 1190 410 1191 q 496 1190 447 1190 q 596 1191 545 1190 q 687 1193 648 1192 q 727 1194 727 1194 q 727 1112 727 1194 q 736 996 728 1030 q 747 949 743 962 q 751 936 751 936 l 498 940 q 502 859 498 940 q 510 675 505 778 q 519 476 515 572 q 527 351 524 380 q 555 174 531 290 q 567 56 579 57 q 485 61 555 55 q 387 73 414 66 q 321 81 359 79 q 283 82 283 82 q 276 131 283 82 q 277 212 269 180 q 284 284 280 227 q 291 409 288 342 q 295 533 294 475 q 294 607 296 591 q 283 671 291 623 q 267 774 275 720 q 252 873 259 828 q 245 928 245 918 q 231 953 243 946 q 219 960 219 960 l 54 954 q 50 980 54 954 q 47 1036 47 1006 q 34 1115 47 1067 q 20 1162 20 1162 z "},"U":{"ha":733,"x_min":16,"x_max":699,"o":"m 566 87 q 510 83 566 87 q 386 77 454 80 q 258 73 318 74 q 191 76 199 72 q 103 157 174 84 q 35 243 33 229 q 42 419 43 298 q 37 678 42 541 q 26 942 33 815 q 16 1136 20 1069 q 129 1198 29 1164 q 248 1198 229 1232 q 259 1134 258 1194 q 259 985 260 1074 q 249 912 258 955 q 241 836 241 869 q 247 718 239 772 q 257 605 254 664 q 269 477 260 534 q 295 392 278 420 q 350 366 309 369 q 391 363 391 363 q 399 389 391 363 q 413 457 406 414 q 428 566 421 512 q 440 675 434 621 q 455 819 448 760 q 473 963 463 877 q 479 1082 479 1010 q 503 1205 479 1154 q 568 1216 536 1207 q 609 1208 601 1225 l 694 1017 q 694 942 699 1006 q 682 800 689 879 q 667 645 674 721 q 659 532 659 569 q 664 361 658 459 q 664 241 670 262 q 632 190 656 219 q 566 87 607 160 z "},"V":{"ha":1009,"x_min":21,"x_max":962,"o":"m 825 842 q 722 473 781 714 q 598 45 663 232 q 512 55 568 53 q 425 56 456 56 l 394 132 l 394 132 q 259 540 315 323 q 134 958 203 758 q 89 1099 108 1033 q 21 1230 70 1165 q 105 1220 21 1230 q 220 1211 190 1211 q 287 1201 251 1211 q 322 1191 322 1191 q 329 1144 322 1191 q 347 1037 336 1097 q 368 919 357 977 q 386 838 378 861 q 419 735 391 820 q 482 544 446 651 q 507 655 492 583 q 536 804 522 728 q 562 941 551 879 q 574 1022 572 1004 q 596 1124 575 1061 q 618 1187 618 1187 q 680 1186 618 1187 q 770 1194 741 1185 q 868 1210 799 1202 q 950 1216 938 1217 q 915 1092 962 1214 q 825 842 869 969 z "},"W":{"ha":1421,"x_min":39,"x_max":1354,"o":"m 1217 854 q 1115 481 1173 724 q 991 48 1056 237 q 904 54 960 55 q 817 53 849 54 l 787 127 l 787 127 q 758 219 779 145 q 715 377 738 293 q 671 534 692 461 q 644 624 651 607 q 624 500 637 591 q 599 309 612 408 q 577 129 587 210 q 566 35 567 47 q 472 21 562 10 q 343 27 382 33 q 324 110 343 27 q 280 296 304 192 q 233 495 256 400 q 203 616 210 591 q 122 855 163 744 q 51 1090 81 966 q 40 1152 41 1127 q 39 1177 39 1177 l 274 1176 q 277 1156 274 1176 q 274 1119 279 1137 q 288 1028 271 1109 q 328 854 306 947 q 370 684 351 760 q 389 607 389 607 q 396 664 389 607 q 415 792 404 720 q 436 928 425 863 q 452 1008 446 993 q 476 1123 462 1039 q 490 1208 490 1208 q 536 1203 490 1208 q 612 1199 582 1198 q 679 1192 643 1200 q 714 1183 714 1183 q 721 1136 714 1183 q 739 1030 728 1090 q 760 912 749 970 q 778 833 770 855 q 811 731 783 814 q 875 543 839 648 q 899 655 884 581 q 929 804 914 728 q 954 943 943 880 q 966 1024 964 1006 q 989 1127 968 1063 q 1010 1191 1010 1191 q 1072 1193 1010 1191 q 1163 1204 1133 1194 q 1261 1224 1192 1214 q 1343 1233 1331 1234 q 1308 1107 1354 1232 q 1217 854 1261 983 z "},"X":{"ha":1315,"x_min":23,"x_max":1253,"o":"m 564 457 q 559 451 561 453 q 557 450 557 450 q 496 362 517 389 q 454 316 474 336 q 407 270 434 296 q 328 185 379 243 q 276 117 305 160 q 247 75 247 75 q 195 63 230 70 l 125 94 l 66 130 l 23 169 l 28 194 q 134 304 81 249 q 206 385 186 359 q 257 457 225 409 q 321 553 290 505 q 375 637 352 601 q 397 673 397 673 l 90 998 l 123 1051 l 136 1171 l 172 1223 l 186 1230 q 352 1043 233 1175 q 540 833 470 910 q 545 838 543 836 q 547 840 547 840 q 609 928 587 900 q 653 976 632 956 q 701 1022 674 996 q 774 1103 727 1047 q 826 1171 796 1128 q 855 1213 855 1213 q 887 1179 855 1213 q 947 1125 920 1145 q 1015 1075 975 1105 q 1065 1032 1055 1044 q 1014 979 1074 1019 q 915 890 954 939 q 801 746 876 840 q 726 652 726 652 l 1253 81 q 1097 48 1180 57 q 944 30 1014 39 q 900 79 944 30 q 796 197 857 128 q 671 338 735 265 q 564 457 606 410 z "},"Y":{"ha":944,"x_min":17,"x_max":899,"o":"m 636 625 q 639 476 637 539 q 643 370 640 412 q 651 301 644 349 q 666 203 659 253 q 677 116 673 154 q 675 77 682 78 q 570 76 663 75 q 450 81 477 76 q 385 83 422 85 q 347 81 347 81 q 341 130 347 81 q 343 212 335 179 q 353 286 347 227 q 363 411 358 344 q 370 536 368 477 q 371 611 373 595 q 361 682 368 637 q 197 932 297 790 q 17 1187 96 1074 q 147 1200 98 1196 q 284 1208 195 1204 q 319 1144 291 1194 q 379 1035 347 1095 q 444 919 412 975 q 490 833 475 862 q 543 958 505 876 q 625 1099 582 1039 l 677 1141 l 859 1137 l 899 1117 q 740 866 793 972 q 636 625 687 760 z "},"Z":{"ha":880,"x_min":16,"x_max":839,"o":"m 185 109 l 73 139 l 41 223 l 35 324 q 144 385 106 349 q 227 469 182 422 q 267 505 245 489 q 305 544 289 521 q 332 597 321 567 q 357 654 342 628 q 426 778 391 712 q 504 918 461 844 q 465 918 504 918 q 368 918 425 918 q 319 924 344 917 q 267 930 294 930 q 224 922 246 930 q 183 913 202 913 q 63 901 72 909 q 37 885 51 888 q 22 881 22 881 l 16 1150 q 213 1153 103 1148 q 420 1158 323 1158 q 506 1168 489 1158 q 590 1156 523 1179 l 787 1080 l 785 932 q 690 796 746 877 q 645 711 665 760 q 597 625 624 662 q 527 507 553 562 q 434 397 500 452 q 426 374 412 379 q 457 359 441 369 q 521 349 465 353 q 641 341 577 345 q 758 336 705 338 q 810 334 810 334 q 814 274 810 334 q 822 193 818 213 q 832 134 825 172 q 839 95 839 95 q 759 99 839 95 q 580 108 678 103 q 397 117 482 113 q 302 121 312 121 q 242 117 282 121 q 185 109 201 112 z "},"a":{"ha":682,"x_min":20,"x_max":650,"o":"m 461 797 q 450 893 461 797 q 416 994 439 989 q 332 1002 388 1004 q 275 1000 275 1000 l 272 863 l 67 784 q 62 826 67 784 q 52 921 57 868 q 42 1024 46 975 q 41 1086 39 1073 q 65 1130 44 1103 q 108 1180 87 1157 q 160 1212 142 1217 q 233 1204 178 1206 q 439 1202 326 1200 q 555 1198 553 1204 l 650 932 l 649 186 q 647 178 649 186 q 623 152 645 170 q 530 89 600 134 q 427 39 460 43 q 361 41 411 37 q 260 51 312 45 q 166 61 208 56 q 125 66 125 66 l 20 221 l 52 612 q 68 624 52 612 q 105 646 85 635 q 172 675 115 651 q 293 726 229 699 q 409 775 357 753 q 461 797 461 797 m 277 237 q 333 251 277 237 q 399 318 389 264 q 409 441 409 372 q 409 509 409 509 q 352 501 409 509 q 277 485 295 493 q 241 457 259 477 q 222 438 222 438 q 225 374 222 438 q 236 286 228 309 q 260 250 243 262 q 277 237 277 237 z "},"b":{"ha":778,"x_min":23,"x_max":741,"o":"m 467 1221 q 522 1174 482 1214 q 602 1086 561 1133 q 673 998 642 1039 q 705 950 705 958 q 702 859 703 921 l 675 823 q 629 759 645 785 q 593 724 614 732 l 484 677 l 588 620 q 648 565 614 606 q 719 483 682 524 q 741 291 728 374 q 638 146 715 223 q 537 51 562 69 q 451 37 524 41 q 292 32 377 33 q 136 32 207 31 q 60 35 66 33 q 53 388 50 211 q 42 741 56 565 q 35 858 39 780 q 28 1015 31 935 q 24 1159 25 1095 q 26 1235 23 1223 q 115 1233 49 1233 q 254 1233 181 1233 q 390 1231 328 1233 q 467 1221 452 1228 m 499 482 q 469 515 482 500 q 439 532 456 529 q 396 540 420 534 q 372 547 372 547 l 269 536 q 288 326 279 362 q 329 285 292 306 q 382 261 366 264 q 453 333 398 257 q 507 444 508 409 q 499 482 505 454 m 268 787 q 342 799 302 791 q 390 810 382 806 q 413 830 398 814 q 439 860 428 846 q 419 917 427 895 q 401 956 412 940 q 334 979 391 972 q 278 985 278 985 q 273 959 278 985 q 265 887 268 932 q 268 787 264 867 z "},"c":{"ha":798,"x_min":32,"x_max":760,"o":"m 756 1051 q 758 1021 756 1051 q 747 956 760 991 q 688 912 735 920 q 582 901 641 903 q 500 931 523 897 q 473 994 477 964 q 420 1028 467 1024 q 340 1026 372 1032 q 300 958 309 1020 q 286 869 292 895 q 281 797 283 855 q 280 664 279 739 q 283 513 281 589 q 290 387 286 436 q 318 314 303 341 q 363 297 338 302 q 416 312 387 303 q 446 321 446 321 l 475 430 q 575 479 528 487 q 708 460 623 471 q 703 427 708 460 q 693 350 699 393 q 682 267 687 307 q 677 213 677 227 q 637 128 676 184 q 599 72 599 72 q 577 75 599 72 q 504 75 556 77 q 345 53 454 73 q 177 58 236 33 q 106 119 148 70 q 45 189 64 168 q 34 331 36 199 q 33 621 32 463 q 37 911 35 778 q 39 1059 39 1045 q 104 1149 37 1085 q 198 1229 170 1214 q 277 1238 212 1236 q 417 1240 342 1240 q 557 1237 492 1239 q 636 1233 623 1234 q 710 1140 663 1230 q 756 1051 756 1051 z "},"d":{"ha":733,"x_min":3,"x_max":699,"o":"m 471 83 q 394 73 456 75 q 259 71 332 71 q 120 71 186 71 q 31 70 54 71 q 25 141 27 80 q 22 278 23 202 q 21 429 21 355 q 22 539 21 503 q 16 875 28 707 q 4 1211 3 1043 q 81 1213 10 1212 q 237 1213 152 1214 q 395 1208 321 1212 q 482 1196 469 1204 q 589 1077 508 1178 q 699 912 669 976 q 684 614 684 780 q 695 340 683 449 q 666 294 696 333 q 598 211 637 256 q 523 128 560 166 q 471 83 486 90 m 258 370 q 312 373 258 370 q 380 399 365 376 q 402 456 387 410 q 433 556 418 502 q 460 659 448 610 q 472 724 472 707 q 413 849 472 756 q 338 940 354 943 q 287 920 321 937 q 248 878 252 903 q 242 808 245 866 q 239 680 240 749 q 238 548 237 610 q 241 464 238 485 q 252 396 245 421 q 258 370 258 370 z "},"e":{"ha":723,"x_min":28,"x_max":689,"o":"m 276 423 q 285 349 276 423 q 317 272 294 274 q 378 289 339 269 q 417 309 417 309 l 414 379 l 612 513 q 617 468 612 513 q 629 366 623 422 q 640 257 635 309 q 642 191 644 205 q 589 107 637 163 q 542 50 542 50 q 521 53 542 50 q 448 54 500 56 q 295 40 395 51 q 195 30 195 30 l 28 231 l 35 1024 q 37 1033 35 1024 q 61 1061 39 1041 q 153 1134 83 1081 q 256 1196 223 1187 q 321 1200 272 1199 q 423 1202 370 1202 q 517 1202 475 1202 q 558 1202 558 1202 l 689 1000 l 632 665 q 615 651 632 665 q 578 625 599 637 q 519 586 568 618 q 417 517 471 553 q 319 452 363 481 q 276 423 276 423 m 407 1014 q 358 999 407 1014 q 300 930 310 985 q 293 817 290 874 q 296 759 296 759 q 345 769 296 759 q 410 789 393 779 q 445 809 428 799 q 461 819 461 819 q 458 883 461 819 q 448 970 455 947 q 423 1003 439 993 q 407 1014 407 1014 z "},"f":{"ha":680,"x_min":24,"x_max":648,"o":"m 281 583 q 306 398 288 505 q 329 243 325 290 q 332 134 332 196 q 332 73 332 73 q 294 74 332 73 q 229 71 256 75 q 132 66 201 66 q 50 67 62 65 q 53 185 38 69 q 67 364 67 300 q 46 784 67 580 q 24 1202 24 989 q 59 1203 46 1202 q 97 1206 72 1204 q 197 1209 109 1207 q 384 1212 284 1211 q 566 1215 484 1214 q 648 1216 648 1216 q 621 1087 626 1114 q 587 972 616 1059 l 326 986 q 314 976 326 986 q 302 953 302 966 q 299 885 302 939 q 292 788 296 831 l 591 812 q 589 798 591 812 q 581 750 586 785 q 536 654 576 715 q 496 593 496 593 q 414 589 496 593 q 281 583 333 585 z "},"g":{"ha":779,"x_min":12,"x_max":743,"o":"m 731 1044 q 734 1014 731 1044 q 726 949 736 984 q 668 905 714 913 q 562 894 621 897 q 483 903 503 890 q 458 945 463 915 q 404 979 452 975 q 325 977 356 983 q 283 931 293 970 q 268 862 274 891 q 266 767 264 847 q 271 593 267 686 q 282 419 275 499 q 298 324 290 338 q 392 284 316 294 q 507 289 469 273 q 539 352 546 303 q 524 431 532 401 q 485 456 515 460 q 427 439 454 451 q 397 516 399 427 q 386 637 394 606 q 435 669 377 666 q 542 682 493 673 q 640 710 591 690 q 707 680 690 729 q 733 490 741 578 q 741 275 724 402 q 717 171 743 255 q 670 75 691 87 q 523 69 648 63 q 351 67 397 75 q 259 48 305 58 q 184 52 213 39 q 111 112 155 63 q 49 182 67 161 q 33 324 39 192 q 23 614 26 456 q 17 905 19 771 q 14 1052 15 1038 q 77 1128 12 1078 q 168 1193 141 1178 q 245 1206 180 1200 q 386 1218 311 1213 q 527 1225 462 1223 q 606 1226 592 1227 q 641 1196 619 1224 q 682 1133 662 1167 q 716 1072 702 1099 q 731 1044 731 1044 z "},"h":{"ha":869,"x_min":-1,"x_max":827,"o":"m 508 787 q 490 927 499 856 q 479 1025 481 999 q 452 1120 477 1069 q 427 1171 427 1171 q 464 1173 427 1171 q 535 1173 500 1175 q 609 1179 569 1168 q 686 1198 648 1190 q 737 1204 722 1206 q 764 1190 751 1202 q 771 1114 770 1183 q 771 957 772 1044 q 769 791 770 871 q 767 685 767 711 q 775 568 767 659 q 793 377 783 477 q 812 192 804 276 q 823 96 821 109 q 787 47 827 43 q 695 45 764 50 q 613 31 625 41 q 581 30 601 20 q 561 39 561 39 q 565 85 561 39 q 568 163 570 132 q 555 284 566 181 q 536 488 545 388 l 532 488 q 477 494 532 488 q 391 502 422 500 q 339 500 363 502 q 328 196 334 345 q 322 46 322 46 q 231 52 322 46 q 119 62 139 58 q 67 60 99 66 q 35 55 35 55 q 35 133 35 55 q 35 311 35 211 q 37 505 35 411 q 41 629 38 598 q 53 797 45 690 q 64 943 61 904 q 33 1079 66 981 q -1 1177 -1 1177 l 71 1195 l 306 1206 q 305 1185 306 1206 q 299 1155 304 1165 q 301 1104 297 1149 q 311 1000 304 1059 q 325 882 317 941 q 338 790 332 823 q 410 786 368 788 q 469 783 452 783 q 508 787 488 783 z "},"i":{"ha":296,"x_min":-9,"x_max":282,"o":"m 71 805 l 280 809 q 271 721 280 809 q 260 595 262 633 q 255 492 259 576 q 247 313 251 407 q 238 143 242 218 q 235 68 235 68 l 25 47 q 28 118 25 47 q 35 209 31 188 q 40 318 39 230 q 41 431 41 406 q 27 498 41 454 q 3 562 12 542 q 21 620 -5 581 q 61 671 47 658 q 73 745 75 685 q 71 805 71 805 m 205 1177 q 163 1186 205 1177 q 88 1187 120 1196 q 37 1144 56 1179 q 21 1094 18 1108 q 27 1051 23 1078 q 26 1010 31 1024 q 45 971 21 995 q 79 938 68 948 q 101 916 89 928 q 113 905 113 905 l 122 905 l 125 924 l 138 904 l 154 905 l 151 928 l 168 906 l 181 907 l 177 930 l 199 908 l 214 916 q 217 922 214 916 q 220 934 220 928 q 231 949 220 940 q 245 966 241 959 q 257 1003 248 972 q 262 1050 265 1033 q 255 1085 258 1068 q 252 1112 252 1102 q 239 1146 252 1129 q 219 1165 232 1154 q 205 1177 205 1177 m 224 1061 q 234 1050 224 1061 q 246 1031 243 1039 q 235 1015 249 1023 q 207 1008 221 1006 q 182 1023 191 1008 q 178 1049 174 1037 q 203 1061 182 1061 q 224 1061 224 1061 m 145 1005 q 156 995 149 1006 q 166 979 163 985 q 170 967 169 972 q 171 962 171 962 l 147 953 q 142 956 147 953 q 132 965 136 960 q 134 986 127 969 q 145 1005 141 1004 m 120 1046 q 119 1038 120 1046 q 115 1013 119 1030 q 89 995 111 996 q 56 998 66 994 q 48 1020 44 1002 q 63 1046 53 1038 q 96 1050 73 1055 q 120 1046 120 1046 m 281 1187 q 278 1172 282 1190 q 275 1129 275 1154 q 276 1005 275 1105 q 269 897 278 905 q 227 887 263 893 q 148 876 191 882 q 67 866 104 871 q 24 861 30 862 q 12 904 18 860 q 1 1004 5 949 q -6 1108 -3 1059 q -9 1167 -9 1158 q 32 1197 -7 1184 q 109 1223 71 1210 q 203 1247 188 1252 q 248 1214 215 1243 q 281 1187 280 1185 z "},"j":{"ha":790,"x_min":26,"x_max":753,"o":"m 30 238 q 28 268 30 238 q 39 333 26 297 q 98 377 51 368 q 204 389 145 385 q 283 379 263 391 q 307 337 302 366 q 359 303 311 307 q 439 306 407 300 q 481 351 470 311 q 500 420 492 390 q 504 516 503 435 q 503 692 505 598 q 496 867 500 787 q 486 958 492 947 q 450 986 473 980 q 396 998 427 992 l 348 1149 l 377 1211 q 441 1215 420 1211 q 533 1233 487 1223 q 608 1231 580 1242 q 679 1170 637 1219 q 740 1101 722 1121 q 751 958 749 1090 q 752 668 753 825 q 748 377 751 511 q 747 231 746 243 q 682 139 748 203 q 589 60 615 75 q 509 51 574 53 q 369 49 444 48 q 229 52 294 50 q 150 56 163 54 q 116 86 136 58 q 76 148 95 115 q 43 210 57 182 q 30 238 30 238 z "},"k":{"ha":977,"x_min":12,"x_max":931,"o":"m 12 65 q 26 116 12 65 q 39 200 39 168 q 42 261 39 233 q 46 289 46 289 l 47 659 q 44 738 47 675 q 38 870 42 800 q 30 1002 35 941 q 21 1081 25 1064 q 20 1166 12 1114 q 27 1219 27 1219 q 69 1220 27 1219 q 142 1229 111 1221 q 251 1242 173 1236 q 343 1246 329 1248 q 346 1209 350 1246 q 332 1121 341 1172 q 314 1018 323 1070 q 303 933 305 965 q 299 867 300 900 q 296 803 297 835 q 296 803 296 803 q 296 804 296 804 q 390 887 315 818 q 548 1034 465 956 q 697 1175 631 1112 q 764 1237 764 1237 q 798 1191 764 1237 q 860 1125 832 1145 q 898 1098 886 1105 q 909 1090 909 1090 l 448 681 q 481 641 448 681 q 560 549 515 601 q 649 447 605 497 q 713 376 693 397 q 841 263 751 333 q 920 182 931 193 q 837 121 908 172 q 736 53 766 70 q 685 17 705 36 q 665 -3 665 -3 q 630 29 665 -3 q 584 91 594 61 q 549 152 578 105 q 483 252 519 199 q 416 350 448 304 q 375 408 384 395 l 296 511 q 293 512 296 511 q 288 517 291 514 q 287 276 286 397 q 288 35 288 156 q 207 35 227 36 q 89 50 165 34 q 12 65 12 65 z "},"l":{"ha":718,"x_min":29,"x_max":684,"o":"m 29 68 q 43 119 29 68 q 56 203 56 170 q 59 263 56 235 q 63 292 63 292 l 64 661 q 61 740 64 678 q 55 872 59 802 q 47 1005 52 943 q 38 1084 42 1067 q 37 1169 29 1116 q 44 1222 44 1222 q 86 1223 44 1222 q 159 1231 128 1223 q 268 1244 190 1238 q 360 1249 346 1251 q 362 1211 367 1249 q 349 1123 357 1174 q 331 1020 340 1073 q 320 935 322 967 q 314 793 317 903 q 307 565 310 684 q 301 353 303 446 q 298 259 298 259 l 684 263 q 680 249 684 263 q 668 199 676 235 q 661 98 660 162 q 662 34 662 34 q 601 35 662 34 q 464 36 541 35 q 315 38 387 37 q 224 38 244 38 q 105 52 182 37 q 29 68 29 68 z "},"m":{"ha":1634,"x_min":27,"x_max":1557,"o":"m 1364 422 q 1492 171 1427 294 q 1544 47 1557 49 q 1352 58 1454 37 q 1156 77 1251 79 q 1144 114 1156 77 q 1117 199 1132 151 q 1090 293 1103 247 q 1074 359 1077 340 q 1018 519 1068 395 q 939 720 968 642 q 883 528 907 612 q 854 426 858 444 q 840 345 848 403 q 826 227 833 287 q 816 120 820 166 q 812 73 812 73 q 771 63 812 73 q 696 53 730 53 q 607 46 660 53 q 554 39 554 39 q 530 123 554 39 q 492 237 506 207 q 465 318 484 252 q 428 456 447 384 q 394 587 408 529 q 379 646 379 646 q 325 334 338 483 q 301 63 311 185 l 28 53 q 28 78 28 53 q 35 140 27 102 q 96 378 59 265 q 167 621 133 490 q 190 733 173 646 q 225 916 208 821 q 257 1086 243 1010 q 271 1161 271 1161 q 405 1202 298 1177 q 534 1215 511 1227 q 563 1115 547 1207 q 598 915 579 1023 q 637 718 616 806 q 680 629 658 629 q 721 701 702 629 q 754 862 739 772 q 780 1032 769 951 q 799 1133 791 1113 l 799 1133 l 828 1207 q 954 1208 865 1207 q 1078 1217 1043 1208 q 1125 1016 1090 1127 q 1202 793 1160 904 q 1289 584 1245 682 q 1364 422 1333 485 z "},"n":{"ha":872,"x_min":-7,"x_max":831,"o":"m -7 1156 q 31 1166 -7 1156 q 104 1176 68 1176 q 190 1183 138 1176 q 241 1190 241 1190 q 287 1105 241 1190 q 355 991 333 1021 q 397 929 366 976 q 459 832 427 882 q 516 742 491 781 q 541 703 541 703 q 539 763 541 703 q 536 897 538 823 q 530 1035 534 970 q 520 1109 526 1100 q 504 1146 507 1126 q 500 1166 500 1166 l 768 1176 q 775 1151 768 1176 q 785 1089 783 1126 q 806 1025 787 1050 q 829 978 824 1000 q 823 917 831 966 q 806 807 816 867 q 787 691 795 747 q 779 609 779 634 q 784 496 779 583 q 797 313 790 408 q 810 143 804 218 q 816 68 816 68 q 788 69 816 68 q 718 68 761 70 q 621 40 675 65 q 567 14 567 14 q 529 96 567 14 q 445 279 492 178 q 356 470 398 380 q 305 575 314 559 q 269 600 287 605 q 241 572 252 594 q 238 484 236 560 q 244 320 240 408 q 254 162 249 233 q 258 92 258 92 q 198 85 258 92 q 117 75 137 79 q 58 60 97 69 q 20 51 20 51 q 23 160 20 51 q 31 404 26 269 q 40 660 36 540 q 43 804 43 781 q 35 884 43 826 q 18 1002 27 942 q 1 1109 9 1063 q -7 1156 -7 1156 z "},"o":{"ha":732,"x_min":3,"x_max":697,"o":"m 600 1179 q 662 1075 638 1105 q 691 1023 685 1045 q 687 904 697 1002 q 674 732 676 806 q 675 620 673 696 q 680 466 677 545 q 686 323 683 387 q 688 248 688 260 q 671 196 688 221 q 634 151 653 172 q 610 96 614 128 q 594 62 606 64 q 517 59 587 60 q 363 59 448 58 q 206 63 279 60 q 121 76 133 67 q 63 158 94 93 q 3 288 33 222 q 22 456 10 353 q 45 666 35 558 q 62 870 56 773 q 62 1021 68 966 q 134 1108 60 1036 q 225 1189 208 1181 q 293 1191 233 1192 q 421 1187 353 1190 q 544 1181 489 1184 q 600 1179 600 1179 m 439 901 q 385 898 439 901 q 317 873 331 895 q 299 805 309 861 q 278 681 288 748 q 262 556 269 614 q 256 481 256 497 q 259 385 256 448 q 279 326 263 322 q 370 349 296 329 q 450 393 444 369 q 454 464 452 406 q 457 591 456 522 q 458 723 458 661 q 456 808 458 786 q 445 876 451 850 q 439 901 439 901 z "},"p":{"ha":756,"x_min":17,"x_max":720,"o":"m 68 353 q 60 682 68 513 q 17 1017 53 850 q 17 1058 17 1017 q 40 1120 17 1099 q 158 1152 62 1140 q 288 1173 254 1164 q 353 1178 304 1176 q 454 1180 402 1179 q 548 1180 507 1180 q 589 1179 589 1179 l 720 978 q 709 891 716 954 q 691 759 702 828 q 663 633 680 690 q 625 563 647 575 q 472 543 568 532 q 283 542 375 554 q 306 350 291 462 q 330 214 321 238 q 336 134 339 183 q 333 85 333 85 q 295 83 333 85 q 230 76 257 82 q 133 63 202 69 q 52 59 64 58 q 53 176 39 60 q 68 353 68 292 m 422 1007 q 358 992 422 1007 q 281 918 294 977 q 273 797 269 859 q 277 734 277 734 q 340 731 277 734 q 427 735 403 729 q 471 747 449 741 q 492 753 492 753 q 488 828 492 753 q 475 961 484 902 q 443 996 465 985 q 422 1007 422 1007 z "},"q":{"ha":731,"x_min":3,"x_max":696,"o":"m 100 60 q 38 163 62 133 q 9 215 15 193 q 13 334 3 236 q 26 506 23 433 q 25 618 27 543 q 20 772 23 693 q 14 914 17 850 q 12 991 12 978 q 29 1041 12 1017 q 66 1088 46 1066 q 89 1142 85 1109 q 106 1177 93 1175 q 182 1178 112 1177 q 336 1179 252 1179 q 493 1174 420 1178 q 580 1162 566 1171 q 636 1080 605 1145 q 696 951 667 1015 q 677 782 689 884 q 654 572 665 680 q 638 368 644 465 q 638 217 632 271 q 566 130 640 203 q 475 50 492 57 q 431 47 469 47 q 453 -123 440 -33 q 472 -233 465 -212 q 479 -313 482 -263 q 475 -362 475 -362 q 438 -363 475 -362 q 373 -371 400 -364 q 276 -383 345 -377 q 194 -388 206 -389 q 196 -270 182 -386 q 210 -94 210 -153 q 207 54 210 -61 q 131 58 161 56 q 100 60 100 60 m 262 337 q 315 340 262 337 q 384 366 369 342 q 401 433 391 376 q 421 556 412 490 q 438 682 431 623 q 445 758 445 741 q 441 853 445 791 q 421 913 437 916 q 330 889 404 909 q 251 845 256 869 q 246 774 248 833 q 242 647 243 716 q 241 514 241 577 q 244 431 241 452 q 255 362 249 388 q 262 337 262 337 z "},"r":{"ha":929,"x_min":23,"x_max":885,"o":"m 78 371 q 99 700 92 532 q 85 1035 106 868 q 89 1076 85 1035 q 117 1138 92 1118 q 238 1171 141 1158 q 369 1191 335 1183 q 434 1196 385 1194 q 536 1198 484 1198 q 630 1198 589 1198 q 671 1198 671 1198 l 785 996 q 763 851 773 949 q 730 705 753 753 q 574 580 690 621 q 635 500 602 543 q 692 428 668 456 q 737 386 704 414 q 803 329 770 357 q 861 276 837 300 q 879 248 885 252 q 809 196 867 237 q 720 138 752 155 q 666 101 687 121 q 644 82 644 82 q 611 115 644 82 q 571 176 578 149 q 488 335 565 198 q 357 564 411 472 q 310 560 333 563 q 316 368 310 480 q 328 233 321 256 q 327 152 334 201 q 319 103 319 103 q 281 102 319 103 q 216 94 243 100 q 118 82 188 87 q 35 77 47 76 q 47 194 23 78 q 78 371 72 311 m 489 1025 q 424 1010 489 1025 q 341 937 359 995 q 322 815 323 878 q 321 752 321 752 q 383 750 321 752 q 470 753 446 747 q 515 766 493 760 q 537 772 537 772 q 539 846 537 772 q 538 979 542 920 q 509 1014 530 1003 q 489 1025 489 1025 z "},"s":{"ha":776,"x_min":16,"x_max":739,"o":"m 726 874 q 708 871 726 874 q 675 863 689 867 q 577 821 661 859 q 494 783 494 783 q 486 845 494 783 q 471 939 479 907 q 389 945 462 970 q 298 905 316 920 q 281 815 278 890 q 283 741 283 741 q 333 738 283 741 q 459 742 382 736 q 576 711 534 748 q 641 648 618 673 q 678 565 663 623 q 696 458 692 507 q 703 290 699 410 q 696 152 707 170 q 635 93 686 134 q 555 54 585 52 q 492 48 541 54 q 389 34 444 43 q 289 16 335 26 q 235 1 243 7 q 176 15 218 -12 q 111 56 135 41 q 54 93 86 71 q 21 114 21 114 l 16 331 l 277 404 q 269 387 277 404 q 256 357 261 370 q 259 304 250 343 q 304 245 268 264 q 486 290 365 212 q 492 414 549 330 q 382 515 436 497 q 297 521 355 524 q 178 511 238 518 q 73 495 118 503 q 28 488 28 488 q 27 530 28 488 q 25 635 26 573 q 24 768 24 698 q 25 893 24 838 q 97 1084 27 1002 q 201 1190 166 1167 q 288 1202 218 1200 q 437 1202 358 1204 q 582 1195 516 1199 q 657 1189 648 1190 q 689 1116 674 1186 q 715 1027 704 1046 q 731 957 739 979 q 726 908 725 943 q 726 874 726 874 z "},"t":{"ha":779,"x_min":31,"x_max":742,"o":"m 742 1169 q 733 1121 742 1169 q 726 1043 724 1073 q 727 986 728 1013 q 726 960 726 960 l 561 966 q 549 959 561 966 q 537 935 537 953 q 534 880 537 925 q 526 780 530 834 q 518 678 522 726 q 514 614 515 629 q 518 539 513 597 q 532 415 524 481 q 549 291 541 349 q 564 218 558 233 q 570 138 574 187 q 567 88 567 88 q 529 87 567 88 q 465 80 492 86 q 367 67 437 73 q 286 63 298 61 q 288 180 273 64 q 302 357 302 296 q 299 482 302 387 q 292 681 296 578 q 285 865 288 784 q 282 946 282 946 l 31 942 q 33 955 31 942 q 41 1003 35 968 q 86 1119 45 1037 q 127 1201 127 1201 q 211 1198 127 1201 q 332 1197 294 1196 q 417 1193 351 1197 q 555 1183 483 1189 q 685 1174 627 1178 q 742 1169 742 1169 z "},"u":{"ha":741,"x_min":1,"x_max":706,"o":"m 148 65 q 80 168 105 138 q 50 220 56 198 q 48 339 43 241 q 54 511 54 437 q 48 623 54 548 q 37 777 43 699 q 25 920 31 856 q 20 996 20 983 q 10 1083 18 1022 q 20 1165 1 1143 q 114 1185 38 1186 q 211 1184 191 1185 q 234 1061 234 1133 q 240 941 234 988 q 258 798 250 856 q 273 654 265 739 q 285 545 279 600 q 300 436 292 491 q 314 368 307 393 q 322 342 322 342 q 363 345 322 342 q 418 371 404 348 q 444 456 435 399 q 456 584 452 513 q 466 697 458 643 q 473 814 473 751 q 464 890 472 847 q 454 964 455 934 q 454 1113 452 1053 q 465 1177 455 1173 q 523 1191 481 1204 q 580 1168 564 1177 q 634 1089 595 1158 q 706 956 673 1021 q 694 787 702 890 q 680 577 686 685 q 672 373 673 470 q 679 222 670 276 q 610 135 681 208 q 523 55 539 62 q 454 52 514 51 q 327 56 395 53 q 203 62 258 58 q 148 65 148 65 z "},"v":{"ha":988,"x_min":1,"x_max":941,"o":"m 137 821 q 47 1070 93 948 q 12 1195 1 1193 q 93 1189 23 1196 q 192 1173 163 1181 q 282 1165 220 1164 q 344 1166 344 1166 q 365 1103 344 1166 q 389 1001 387 1040 q 400 920 389 983 q 425 782 411 858 q 455 634 439 707 q 480 523 470 562 q 543 714 515 629 q 576 817 570 798 q 594 897 583 839 q 615 1015 605 955 q 633 1122 625 1076 q 640 1169 640 1169 q 676 1179 640 1169 q 742 1190 711 1190 q 857 1199 772 1190 q 941 1208 941 1208 q 872 1078 891 1143 q 828 937 853 1012 q 703 519 759 736 q 568 110 646 302 l 568 110 l 537 35 q 450 33 505 35 q 363 24 394 32 q 239 452 298 210 q 137 821 180 693 z "},"w":{"ha":1398,"x_min":16,"x_max":1332,"o":"m 153 821 q 63 1070 109 948 q 28 1195 16 1193 q 110 1189 40 1196 q 208 1173 179 1181 q 298 1165 237 1164 q 360 1166 360 1166 q 381 1103 360 1166 q 405 1001 403 1040 q 416 920 406 983 q 441 782 427 858 q 471 634 456 707 q 496 523 486 562 q 559 714 532 629 q 593 817 587 798 q 610 897 600 839 q 631 1015 621 955 q 649 1122 642 1076 q 656 1169 656 1169 q 692 1179 656 1169 q 758 1190 728 1190 q 835 1196 789 1190 q 881 1203 881 1203 q 895 1119 881 1203 q 920 1005 909 1035 q 936 942 924 989 q 960 845 948 895 q 982 755 972 795 q 991 716 991 716 q 1009 776 991 716 q 1047 910 1026 836 q 1084 1048 1067 984 q 1097 1122 1100 1113 q 1094 1160 1091 1140 q 1097 1179 1097 1179 l 1332 1190 q 1331 1164 1332 1190 q 1320 1102 1329 1139 q 1248 864 1289 977 q 1168 622 1207 751 q 1139 509 1160 596 q 1095 326 1118 421 q 1054 156 1072 231 q 1036 81 1036 81 q 1013 82 1036 81 q 952 81 989 83 q 860 53 914 79 q 806 27 806 27 q 794 120 804 39 q 771 300 784 201 q 746 490 759 399 q 726 613 733 581 q 699 522 719 595 q 655 363 678 448 q 612 203 633 278 q 584 110 591 129 l 584 110 l 553 35 q 466 33 522 35 q 380 24 411 32 q 256 452 315 210 q 153 821 197 693 z "},"x":{"ha":1048,"x_min":32,"x_max":998,"o":"m 511 496 q 506 490 507 492 q 505 488 505 488 q 450 396 469 425 q 413 348 431 368 q 371 299 395 327 q 301 210 347 272 q 256 139 281 184 q 230 94 230 94 q 184 81 208 86 l 123 114 l 71 151 l 32 193 l 36 220 q 130 336 83 277 q 194 420 176 394 q 239 497 211 446 q 295 598 268 547 q 343 686 323 648 q 363 724 363 724 l 92 1067 l 120 1122 l 122 1144 l 136 1158 l 204 1198 l 255 1204 q 379 1039 311 1128 q 489 892 446 949 q 493 898 492 896 q 495 901 495 901 q 550 993 530 964 q 589 1043 570 1022 q 631 1092 607 1065 q 696 1177 654 1118 q 701 1185 703 1187 l 782 1198 l 848 1181 l 911 1099 l 890 1031 q 853 994 871 1013 q 821 953 834 974 q 720 801 786 900 q 654 703 654 703 l 996 259 l 998 200 l 963 125 l 904 75 l 848 47 q 846 46 846 47 q 807 98 846 46 q 715 222 768 150 q 604 371 661 294 q 511 496 547 447 z "},"y":{"ha":989,"x_min":10,"x_max":942,"o":"m 334 635 q 200 929 281 773 q 10 1234 119 1086 l 52 1255 l 239 1259 l 293 1217 q 403 1024 337 1154 q 485 849 469 894 q 583 1033 515 909 q 666 1187 651 1157 q 807 1179 757 1183 q 942 1166 857 1174 q 771 927 859 1049 q 617 694 683 805 q 611 648 614 667 q 608 620 608 628 q 608 543 605 604 q 615 414 610 483 q 626 284 620 345 q 636 208 632 224 q 638 125 644 176 q 632 75 632 75 q 593 76 632 75 q 527 73 555 78 q 402 68 498 68 q 294 71 306 68 q 291 110 287 71 q 303 200 295 149 q 318 300 311 251 q 328 372 326 349 q 331 480 330 415 q 334 635 332 546 z "},"z":{"ha":942,"x_min":28,"x_max":897,"o":"m 718 1186 l 828 1118 l 877 959 q 761 894 801 932 q 674 806 721 856 q 631 768 654 785 q 591 727 608 751 q 563 671 574 703 q 536 610 552 639 q 463 479 500 549 q 381 332 426 410 q 422 332 381 332 q 525 333 464 332 q 576 326 551 333 q 631 319 602 318 q 676 328 653 319 q 720 337 699 336 q 846 351 836 340 q 874 368 859 363 q 890 372 890 372 l 897 87 q 688 83 804 89 q 470 79 572 78 q 404 75 454 79 q 295 65 354 71 l 216 92 q 199 115 209 102 q 179 146 189 127 q 138 214 163 174 q 87 281 112 254 l 85 317 q 131 383 105 346 q 184 461 156 420 q 233 550 211 498 q 282 642 254 602 q 308 696 298 665 q 332 749 317 728 q 411 866 376 811 q 454 926 446 920 q 461 950 476 945 q 429 966 446 956 q 361 970 420 972 q 235 963 302 968 q 113 954 168 958 q 58 949 58 949 q 54 1013 58 949 q 45 1098 50 1076 q 35 1160 41 1119 q 28 1202 28 1202 q 112 1197 28 1202 q 300 1187 197 1192 q 493 1178 404 1182 q 594 1173 583 1173 q 657 1178 614 1173 q 718 1186 700 1183 z "},".":{"ha":296,"x_min":36,"x_max":283,"o":"m 138 213 q 114 217 138 213 q 81 213 90 221 q 66 186 71 204 q 74 164 62 168 q 106 161 84 160 q 133 180 129 163 q 138 205 137 197 q 138 213 138 213 m 163 172 q 152 153 159 170 q 150 132 145 136 q 160 123 154 126 q 165 119 165 119 l 189 128 q 188 134 189 128 q 184 145 186 139 q 174 162 181 151 q 163 172 166 172 m 242 227 q 221 228 242 227 q 196 216 200 228 q 200 189 192 203 q 224 174 209 175 q 253 181 239 173 q 264 198 267 190 q 251 216 260 205 q 242 227 242 227 m 224 343 q 237 332 224 343 q 256 313 250 321 q 270 278 270 296 q 273 252 269 269 q 280 217 276 235 q 275 169 283 199 q 263 132 267 139 q 249 116 259 125 q 238 100 238 106 q 234 88 237 94 q 231 82 231 82 l 217 75 l 195 97 l 199 74 l 186 73 l 170 94 l 172 71 l 156 71 l 144 90 l 140 71 l 131 71 q 119 83 131 71 q 97 104 107 94 q 62 138 86 115 q 44 176 39 161 q 45 218 49 191 q 39 260 41 245 q 55 310 36 275 q 106 354 73 346 q 181 353 138 362 q 224 343 224 343 z "},":":{"ha":307,"x_min":30,"x_max":293,"o":"m 144 219 q 122 230 144 219 q 89 235 100 240 q 67 213 77 229 q 68 191 58 197 q 99 178 77 183 q 129 189 120 174 q 140 211 137 203 q 144 219 144 219 m 156 172 q 140 158 152 172 q 132 138 129 143 q 139 126 135 132 q 143 121 143 121 l 168 123 q 169 129 168 123 q 169 141 170 134 q 163 160 168 148 q 156 172 159 172 m 248 203 q 228 210 248 203 q 200 205 208 216 q 197 179 192 195 q 216 157 201 163 q 245 156 230 152 q 260 170 261 161 q 253 191 259 178 q 248 203 248 203 m 262 320 q 271 306 262 320 q 286 281 281 292 q 288 244 293 261 q 283 218 285 236 q 281 184 282 201 q 262 139 279 165 q 241 106 246 112 q 223 95 235 101 q 208 83 210 89 q 201 72 205 77 q 196 67 196 67 l 181 64 l 165 92 l 163 68 l 150 71 l 140 96 l 136 73 l 121 77 l 115 100 l 106 83 l 97 85 q 89 99 97 85 q 73 127 80 114 q 50 168 66 139 q 43 210 34 197 q 56 250 52 222 q 62 292 60 277 q 91 336 63 307 q 152 363 119 365 q 223 341 184 362 q 262 320 262 320 m 178 598 q 181 590 178 598 q 191 567 183 583 q 221 555 199 551 q 252 566 242 559 q 254 588 262 572 q 234 611 245 605 q 200 608 222 617 q 178 598 178 598 m 163 552 q 155 540 159 552 q 149 522 151 528 q 148 509 147 514 q 149 504 149 504 l 174 500 q 178 505 174 500 q 186 516 182 510 q 178 537 189 522 q 163 552 167 552 m 74 587 q 67 575 74 587 q 59 554 60 562 q 73 540 58 545 q 104 540 89 535 q 123 560 118 544 q 121 587 128 576 q 94 593 114 598 q 74 587 74 587 m 64 705 q 104 724 64 705 q 176 743 143 743 q 236 712 209 743 q 264 667 262 682 q 267 625 264 652 q 278 585 269 597 q 269 543 286 572 q 244 503 251 515 q 227 476 236 490 q 218 462 218 462 l 210 460 l 202 477 l 194 456 l 179 452 l 176 475 l 165 450 l 152 449 l 151 472 l 134 445 l 119 449 q 114 454 119 449 q 107 465 109 459 q 93 478 105 471 q 76 490 81 484 q 55 524 71 496 q 39 569 40 551 q 38 604 39 587 q 35 630 37 621 q 40 667 30 648 q 54 691 44 677 q 64 705 64 705 z "},",":{"ha":268,"x_min":-16,"x_max":256,"o":"m 37 -90 q 11 -98 37 -90 q -16 -73 -15 -105 q -4 -15 -16 -39 q 26 41 7 10 q 71 121 45 71 q 96 188 96 172 q 96 255 95 204 q 122 314 96 306 q 169 298 146 322 q 191 275 191 275 q 213 279 191 275 q 245 273 235 284 q 255 230 255 260 q 237 184 256 199 q 172 105 191 146 q 151 59 164 90 q 139 4 138 27 q 137 -62 140 -19 q 112 -119 135 -105 q 74 -122 88 -132 q 54 -106 60 -113 q 42 -95 47 -100 q 37 -90 37 -90 z "},";":{"ha":333,"x_min":-12,"x_max":317,"o":"m 40 -90 q 14 -98 40 -90 q -12 -73 -12 -105 q -1 -15 -12 -39 q 30 41 10 10 q 74 121 49 71 q 99 188 99 172 q 99 255 98 204 q 125 314 100 306 q 172 298 150 322 q 193 275 193 275 q 216 279 193 275 q 248 273 238 284 q 258 230 258 260 q 241 184 259 199 q 202 144 221 168 q 175 105 182 120 q 154 59 168 90 q 142 4 141 27 q 141 -62 143 -19 q 115 -119 138 -105 q 77 -122 91 -132 q 57 -106 63 -113 q 45 -95 50 -100 q 40 -90 40 -90 m 173 606 q 149 610 173 606 q 115 606 125 614 q 101 580 105 598 q 109 558 97 562 q 141 555 119 554 q 168 574 163 557 q 172 598 172 590 q 173 606 173 606 m 198 566 q 187 547 194 564 q 184 525 180 530 q 194 516 189 520 q 200 513 200 513 l 223 522 q 222 527 223 522 q 219 539 221 532 q 209 556 216 545 q 198 566 201 566 m 277 621 q 256 621 277 621 q 231 610 235 622 q 235 583 227 597 q 259 568 243 568 q 288 575 273 566 q 299 591 302 583 q 286 610 295 600 q 277 621 277 621 m 258 736 q 271 725 258 736 q 291 706 284 714 q 304 671 304 689 q 307 645 304 663 q 315 611 311 628 q 309 563 317 593 q 298 526 301 533 q 283 510 294 519 q 273 494 273 500 q 269 481 272 488 q 266 475 266 475 l 252 469 l 229 490 l 233 468 l 220 467 l 204 488 l 206 465 l 191 465 l 178 484 l 175 465 l 165 465 q 154 476 165 465 q 132 498 142 488 q 97 532 121 509 q 79 570 73 555 q 80 612 83 585 q 73 654 76 639 q 89 704 71 669 q 140 748 108 740 q 215 746 172 756 q 258 736 258 736 z "},"-":{"ha":501,"x_min":19,"x_max":477,"o":"m 51 510 q 35 532 51 510 q 50 566 19 553 q 109 575 81 577 q 172 565 136 572 q 262 551 207 557 q 334 551 318 545 q 396 573 348 557 q 461 570 444 590 q 463 520 477 549 q 448 492 448 492 q 460 472 448 492 q 464 439 472 452 q 427 415 456 426 q 378 416 399 404 q 282 450 327 446 q 231 454 265 452 q 176 446 197 455 q 112 424 153 437 q 50 430 71 412 q 34 464 29 447 q 41 488 38 480 q 47 503 44 496 q 51 510 51 510 z "},"!":{"ha":317,"x_min":-1,"x_max":302,"o":"m 153 488 q 121 467 153 488 q 69 483 90 446 q 50 553 49 519 q 60 631 51 587 q 67 719 64 653 q 72 856 71 784 q 73 986 74 927 q 67 1054 72 1044 q 28 1128 57 1071 q 27 1208 -1 1186 q 101 1213 57 1229 q 146 1197 146 1197 q 174 1213 146 1197 q 223 1221 202 1229 q 263 1178 243 1212 q 266 1118 283 1144 q 236 1055 248 1091 q 222 998 224 1019 q 221 936 222 987 q 222 824 220 884 q 227 710 223 763 q 238 644 230 657 q 276 569 254 618 q 274 493 298 519 q 224 470 250 466 q 186 478 199 475 q 163 485 174 481 q 153 488 153 488 m 157 213 q 133 217 157 213 q 100 213 109 221 q 85 186 90 204 q 92 164 81 168 q 125 161 103 160 q 151 180 147 163 q 156 205 155 197 q 157 213 157 213 m 182 172 q 171 153 178 170 q 169 132 164 136 q 178 123 173 126 q 184 119 184 119 l 208 128 q 207 134 208 128 q 203 145 205 139 q 192 162 199 151 q 182 172 185 172 m 260 227 q 239 228 260 227 q 214 216 218 228 q 219 189 210 203 q 243 174 227 175 q 272 181 258 173 q 283 198 286 190 q 270 216 279 205 q 260 227 260 227 m 242 343 q 255 332 242 343 q 275 313 268 321 q 288 278 288 296 q 291 252 288 269 q 298 217 294 235 q 293 169 302 199 q 281 132 285 139 q 267 116 277 125 q 257 100 257 106 q 253 88 256 94 q 250 82 250 82 l 236 75 l 213 97 l 218 74 l 205 73 l 188 94 l 191 71 l 175 71 l 162 90 l 159 71 l 150 71 q 138 83 150 71 q 115 104 125 94 q 81 138 105 115 q 63 176 58 161 q 64 218 68 191 q 58 260 60 245 q 73 310 54 275 q 125 354 92 346 q 199 353 156 362 q 242 343 242 343 z "},"?":{"ha":543,"x_min":21,"x_max":517,"o":"m 449 526 q 405 524 444 525 q 319 525 366 524 q 231 529 272 526 q 180 540 190 532 q 115 588 159 554 q 64 645 71 623 q 53 748 54 680 q 77 843 52 817 l 125 896 q 209 918 152 925 q 287 916 266 910 q 349 964 318 925 q 344 1029 380 1004 q 261 1064 307 1055 q 214 1065 216 1074 q 212 1055 213 1061 q 212 1054 212 1055 q 212 1054 212 1054 q 217 992 216 1031 q 191 947 218 953 q 144 955 163 941 q 117 975 125 968 q 101 989 109 982 q 94 996 94 996 q 63 996 94 996 q 28 1027 31 996 q 53 1132 21 1078 q 127 1211 84 1187 q 158 1230 141 1219 q 200 1240 176 1240 q 297 1219 223 1240 q 389 1198 371 1198 q 436 1172 406 1198 q 472 1135 466 1146 q 476 1046 478 1124 q 472 939 474 968 q 461 877 470 911 q 439 829 452 844 q 401 795 426 815 q 332 781 376 774 q 258 787 287 787 q 229 787 229 787 q 227 750 229 787 q 237 705 225 713 q 279 682 245 696 q 330 671 312 667 q 328 724 326 696 q 353 758 331 753 q 399 751 381 764 q 427 730 418 737 q 443 716 435 723 q 450 710 450 710 q 481 709 450 710 q 517 678 513 709 q 485 598 517 671 q 449 526 453 526 m 289 213 q 265 218 289 213 q 232 215 241 223 q 216 189 222 207 q 222 167 211 171 q 255 163 233 162 q 282 180 277 163 q 288 205 286 197 q 289 213 289 213 m 313 172 q 301 153 309 170 q 298 132 294 136 q 307 122 302 126 q 313 119 313 119 l 336 127 q 336 132 336 127 q 332 144 335 138 q 323 161 330 151 q 313 172 316 172 m 393 224 q 372 225 393 224 q 347 214 351 227 q 350 188 342 202 q 374 172 358 173 q 402 178 388 170 q 414 194 417 186 q 402 213 411 202 q 393 224 393 224 m 378 340 q 391 329 378 340 q 410 309 404 317 q 422 273 423 291 q 425 247 422 264 q 431 213 427 230 q 424 165 433 195 q 411 129 414 135 q 396 113 407 121 q 385 98 385 104 q 380 85 384 91 q 377 79 377 79 l 363 73 l 341 95 l 345 72 l 332 71 l 316 94 l 317 70 l 302 71 l 290 90 l 286 72 l 277 72 q 265 84 277 72 q 243 106 254 96 q 211 141 233 117 q 193 180 188 165 q 196 221 199 194 q 191 264 193 248 q 209 313 189 279 q 261 355 229 348 q 336 351 294 362 q 378 340 378 340 z "},"*":{"ha":871,"x_min":16,"x_max":829,"o":"m 350 624 q 272 641 350 624 q 161 630 193 657 q 111 544 127 603 q 131 470 94 484 q 240 458 168 456 q 328 515 313 460 q 347 597 343 571 q 350 624 350 624 m 429 485 q 391 426 416 482 q 380 353 366 369 q 412 323 395 336 q 429 311 429 311 l 508 338 q 506 355 508 338 q 495 395 504 373 q 463 452 486 417 q 429 485 440 487 m 696 660 q 627 664 696 660 q 542 628 557 669 q 554 539 526 587 q 631 486 581 491 q 728 508 681 481 q 766 561 775 534 q 726 623 755 587 q 696 660 696 660 m 647 1046 q 689 1008 647 1046 q 753 941 731 970 q 793 824 795 883 q 800 738 791 795 q 820 623 810 681 q 798 465 829 564 q 754 344 766 366 q 706 291 742 321 q 669 241 671 261 q 655 200 667 220 q 644 180 644 180 l 597 157 l 524 233 l 536 157 l 492 155 l 440 227 l 446 151 l 394 151 l 354 216 l 341 156 l 311 155 q 272 195 311 155 q 201 271 233 235 q 92 386 168 306 q 35 514 16 466 q 43 652 53 562 q 26 792 34 742 q 85 957 19 842 q 258 1096 151 1072 q 379 1101 312 1107 q 506 1082 446 1095 q 606 1058 566 1070 q 647 1046 647 1046 z "}}}
